<svg width="358" height="358" viewBox="0 0 358 358" fill="none" xmlns="http://www.w3.org/2000/svg">
<g filter="url(#filter0_d_0_395)">
<rect x="100" y="80" width="158" height="158" fill="white"/>
</g>
<path d="M155.146 185.055H195.546L193.617 178.808L198.232 182.769L202.463 186.56L210.169 193V132.012C209.977 128.221 206.713 125 202.667 125L155.16 125.009C151.117 125.009 147.836 128.236 147.836 132.027V178.04C147.836 182.038 151.111 185.055 155.146 185.055ZM185.032 141.102L184.938 141.136L184.972 141.102H185.032ZM163.411 144.697C168.604 140.918 173.418 141.099 173.418 141.099L173.806 141.482C167.451 142.997 164.57 145.836 164.57 145.836C164.57 145.836 165.34 145.46 166.686 144.884C175.246 141.518 184.593 141.762 193.246 146.023C193.246 146.023 190.359 143.369 184.394 141.669L184.921 141.15C185.746 141.153 190.109 141.306 194.779 144.72C194.779 144.72 200.003 153.645 200.003 164.61C199.83 164.4 196.762 169.33 188.865 169.5C188.865 169.5 187.528 167.987 186.576 166.667C191.194 165.341 192.923 162.689 192.923 162.689C191.407 163.644 190.024 164.21 188.902 164.777C187.177 165.536 185.448 165.91 183.723 166.293C175.552 167.619 170.964 165.4 166.629 163.641L165.148 162.887C165.148 162.887 166.873 165.539 171.307 166.865C170.143 168.194 168.99 169.704 168.99 169.704C161.096 169.517 158.217 164.587 158.217 164.587C158.217 153.605 163.411 144.697 163.411 144.697Z" fill="#5865F2"/>
<path d="M185.542 161.184C187.556 161.184 189.197 159.484 189.197 157.388C189.197 155.305 187.565 153.605 185.542 153.605V153.614C183.536 153.614 181.892 155.308 181.887 157.405C181.887 159.484 183.527 161.184 185.542 161.184Z" fill="#5865F2"/>
<path d="M172.46 161.184C174.474 161.184 176.115 159.484 176.115 157.388C176.115 155.305 174.485 153.605 172.471 153.605L172.46 153.614C170.445 153.614 168.805 155.308 168.805 157.405C168.805 159.484 170.445 161.184 172.46 161.184Z" fill="#5865F2"/>
<defs>
<filter id="filter0_d_0_395" x="0" y="0" width="358" height="358" filterUnits="userSpaceOnUse" color-interpolation-filters="sRGB">
<feFlood flood-opacity="0" result="BackgroundImageFix"/>
<feColorMatrix in="SourceAlpha" type="matrix" values="0 0 0 0 0 0 0 0 0 0 0 0 0 0 0 0 0 0 127 0" result="hardAlpha"/>
<feOffset dy="20"/>
<feGaussianBlur stdDeviation="50"/>
<feColorMatrix type="matrix" values="0 0 0 0 0.356863 0 0 0 0 0.356863 0 0 0 0 0.356863 0 0 0 0.02 0"/>
<feBlend mode="normal" in2="BackgroundImageFix" result="effect1_dropShadow_0_395"/>
<feBlend mode="normal" in="SourceGraphic" in2="effect1_dropShadow_0_395" result="shape"/>
</filter>
</defs>
</svg>
