<svg width="362" height="362" viewBox="0 0 362 362" fill="none" xmlns="http://www.w3.org/2000/svg">
<g filter="url(#filter0_d_0_421)">
<rect x="100" y="80" width="162" height="162" fill="white"/>
</g>
<g clip-path="url(#clip0_0_421)">
<path d="M168.755 197C175.24 197 180.503 191.624 180.503 185V173H168.755C162.271 173 157.008 178.376 157.008 185C157.008 191.624 162.271 197 168.755 197Z" fill="#0ACF83"/>
<path d="M157.008 161C157.008 154.376 162.271 149 168.755 149H180.503V173H168.755C162.271 173 157.008 167.624 157.008 161Z" fill="#A259FF"/>
<path d="M157.008 137C157.008 130.376 162.271 125 168.755 125H180.503V149H168.755C162.271 149 157.008 143.624 157.008 137Z" fill="#F24E1E"/>
<path d="M180.5 125H192.248C198.732 125 203.995 130.376 203.995 137C203.995 143.624 198.732 149 192.248 149H180.5V125Z" fill="#FF7262"/>
<path d="M203.995 161C203.995 167.624 198.732 173 192.248 173C185.763 173 180.5 167.624 180.5 161C180.5 154.376 185.763 149 192.248 149C198.732 149 203.995 154.376 203.995 161Z" fill="#1ABCFE"/>
</g>
<defs>
<filter id="filter0_d_0_421" x="0" y="0" width="362" height="362" filterUnits="userSpaceOnUse" color-interpolation-filters="sRGB">
<feFlood flood-opacity="0" result="BackgroundImageFix"/>
<feColorMatrix in="SourceAlpha" type="matrix" values="0 0 0 0 0 0 0 0 0 0 0 0 0 0 0 0 0 0 127 0" result="hardAlpha"/>
<feOffset dy="20"/>
<feGaussianBlur stdDeviation="50"/>
<feColorMatrix type="matrix" values="0 0 0 0 0.356863 0 0 0 0 0.356863 0 0 0 0 0.356863 0 0 0 0.02 0"/>
<feBlend mode="normal" in2="BackgroundImageFix" result="effect1_dropShadow_0_421"/>
<feBlend mode="normal" in="SourceGraphic" in2="effect1_dropShadow_0_421" result="shape"/>
</filter>
<clipPath id="clip0_0_421">
<rect width="47" height="72" fill="white" transform="translate(157 125)"/>
</clipPath>
</defs>
</svg>
